<svg width="1512" height="245" viewBox="0 0 1512 245" fill="none" xmlns="http://www.w3.org/2000/svg">
<path d="M85.5289 1.45851C29.5104 11.6149 -2 169.039 -2 169.039V244.5H376.5H755H1512V73.2786C1485.66 62.1549 1394.86 105.344 1368.45 132.041C1335.44 165.411 1227.41 169.039 1124.37 90.6887C1055.17 38.0664 973.322 132.041 930.308 132.041C895.896 132.041 873.789 110.276 834.776 90.6887C806.767 90.6887 793.063 139.44 742.246 169.039C678.725 206.037 638.211 206.037 473.157 132.041C341.113 72.8434 281.094 184.998 198.066 169.039C115.039 153.08 141.547 -8.69788 85.5289 1.45851Z" fill="#619CF5" stroke="black"/>
</svg>
